ffmpeg started on 2025-05-12 at 18:52:10
Report written to "D:\Convert\FFMetrics\reports\ssim_report-6.txt"
Log level: 32
Command line:
ffmpeg -hide_banner -nostdin -i "G:\\\xc0\xed\xe8\xec\xe5\\\xce\xed\xe3\xee\xe8\xed\xe3\xe8\\!_35_\xcb\xe5\xf2\xee_2024\\DreamCast\\\xcf\xee\xea\xe0-\xef\xee\xea\xe0, \xc7\xe5\xec\xeb\xff\\[DC] Bye Bye Earth - 08_Telegram_HEVC.mkv" -i "G:\\\xc0\xed\xe8\xec\xe5\\\xce\xed\xe3\xee\xe8\xed\xe3\xe8\\!_35_\xcb\xe5\xf2\xee_2024\\DreamCast\\\xcf\xee\xea\xe0-\xef\xee\xea\xe0, \xc7\xe5\xec\xeb\xff\\[DC] Bye Bye Earth - 08_Telegram.mp4" -lavfi "[0:v]settb=AVTB,setpts=PTS-STARTPTS,format=pix_fmts=yuv420p10,fps=24000/1001,scale=1920:1080:flags=bicubic[main];[1:v]settb=AVTB,setpts=PTS-STARTPTS,format=pix_fmts=yuv420p,fps=24000/1001,scale=1920:1080:flags=bicubic[ref];[main][ref]ssim=eof_action=endall:stats_file='D\\:/Convert/FFMetrics/logs/ssim_logfile-6.txt'" -f null -
Input #0, matroska,webm, from 'G:\Аниме\Онгоинги\!_35_Лето_2024\DreamCast\Пока-пока, Земля\[DC] Bye Bye Earth - 08_Telegram_HEVC.mkv':
  Metadata:
    COMPATIBLE_BRANDS: isomiso2avc1mp41
    MAJOR_BRAND     : isom
    MINOR_VERSION   : 512
    ENCODER         : Lavf61.7.100
  Duration: 00:23:46.65, start: -0.021000, bitrate: 1759 kb/s
  Stream #0:0: Video: hevc (Main 10), yuv420p10le(tv, bt709, progressive), 1920x1080 [SAR 1:1 DAR 16:9], 23.98 fps, 23.98 tbr, 1k tbn (default)
      Metadata:
        HANDLER_NAME    : VideoHandler
        VENDOR_ID       : [0][0][0][0]
        ENCODER         : Lavc61.19.100 libx265
        BPS             : 1562101
        DURATION        : 00:23:46.549708333
        NUMBER_OF_FRAMES: 34203
        NUMBER_OF_BYTES : 278551714
        _STATISTICS_WRITING_APP: mkvpropedit v66.0.0 ('Josie') 64-bit
        _STATISTICS_WRITING_DATE_UTC: 2025-05-09 16:48:22
        _STATISTICS_TAGS: BPS DURATION NUMBER_OF_FRAMES NUMBER_OF_BYTES
  Stream #0:1: Audio: aac (LC), 48000 Hz, stereo, fltp (default)
      Metadata:
        HANDLER_NAME    : SoundHandler
        VENDOR_ID       : [0][0][0][0]
        ENCODER         : Lavc61.19.100 aac
        BPS             : 193792
        DURATION        : 00:23:46.645000000
        NUMBER_OF_FRAMES: 66875
        NUMBER_OF_BYTES : 34559073
        _STATISTICS_WRITING_APP: mkvpropedit v66.0.0 ('Josie') 64-bit
        _STATISTICS_WRITING_DATE_UTC: 2025-05-09 16:48:22
        _STATISTICS_TAGS: BPS DURATION NUMBER_OF_FRAMES NUMBER_OF_BYTES
Input #1, mov,mp4,m4a,3gp,3g2,mj2, from 'G:\Аниме\Онгоинги\!_35_Лето_2024\DreamCast\Пока-пока, Земля\[DC] Bye Bye Earth - 08_Telegram.mp4':
  Metadata:
    major_brand     : isom
    minor_version   : 512
    compatible_brands: isomiso2avc1mp41
    encoder         : Lavf61.1.100
  Duration: 00:23:46.62, start: 0.000000, bitrate: 3906 kb/s
  Stream #1:0[0x1](und): Video: h264 (High) (avc1 / 0x31637661), yuv420p(tv, bt709, progressive), 1920x1080 [SAR 1:1 DAR 16:9], 3758 kb/s, 23.98 fps, 23.98 tbr, 24k tbn (default)
      Metadata:
        handler_name    : VideoHandler
        vendor_id       : [0][0][0][0]
        encoder         : Lavc61.3.100 h264_qsv
  Stream #1:1[0x2](und): Audio: aac (HE-AACv2) (mp4a / 0x6134706D), 48000 Hz, stereo, fltp, 144 kb/s (default)
      Metadata:
        handler_name    : SoundHandler
        vendor_id       : [0][0][0][0]
Stream mapping:
  Stream #0:0 (hevc) -> settb:default
  Stream #1:0 (h264) -> settb:default
  ssim:default -> Stream #0:0 (wrapped_avframe)
  Stream #0:1 -> #0:1 (aac (native) -> pcm_s16le (native))
Output #0, null, to 'pipe:':
  Metadata:
    COMPATIBLE_BRANDS: isomiso2avc1mp41
    MAJOR_BRAND     : isom
    MINOR_VERSION   : 512
    encoder         : Lavf61.7.100
  Stream #0:0: Video: wrapped_avframe, yuv420p10le(tv, bt709, progressive), 1920x1080 [SAR 1:1 DAR 16:9], q=2-31, 200 kb/s, 23.98 fps, 23.98 tbn
      Metadata:
        encoder         : Lavc61.19.100 wrapped_avframe
  Stream #0:1: Audio: pcm_s16le, 48000 Hz, stereo, s16, 1536 kb/s (default)
      Metadata:
        HANDLER_NAME    : SoundHandler
        VENDOR_ID       : [0][0][0][0]
        _STATISTICS_TAGS: BPS DURATION NUMBER_OF_FRAMES NUMBER_OF_BYTES
        BPS             : 193792
        DURATION        : 00:23:46.645000000
        NUMBER_OF_FRAMES: 66875
        NUMBER_OF_BYTES : 34559073
        _STATISTICS_WRITING_APP: mkvpropedit v66.0.0 ('Josie') 64-bit
        _STATISTICS_WRITING_DATE_UTC: 2025-05-09 16:48:22
        encoder         : Lavc61.19.100 pcm_s16le
frame=  165 fps=0.0 q=-0.0 size=N/A time=00:00:06.88 bitrate=N/A speed=13.3x    frame=  419 fps=404 q=-0.0 size=N/A time=00:00:17.47 bitrate=N/A speed=16.8x    frame=  656 fps=424 q=-0.0 size=N/A time=00:00:27.36 bitrate=N/A speed=17.7x    frame=  922 fps=445 q=-0.0 size=N/A time=00:00:38.45 bitrate=N/A speed=18.6x    frame= 1143 fps=444 q=-0.0 size=N/A time=00:00:47.67 bitrate=N/A speed=18.5x    frame= 1360 fps=439 q=-0.0 size=N/A time=00:00:56.72 bitrate=N/A speed=18.3x    frame= 1521 fps=422 q=-0.0 size=N/A time=00:01:03.43 bitrate=N/A speed=17.6x    frame= 1711 fps=414 q=-0.0 size=N/A time=00:01:11.36 bitrate=N/A speed=17.3x    frame= 1917 fps=413 q=-0.0 size=N/A time=00:01:19.95 bitrate=N/A speed=17.2x    frame= 2125 fps=412 q=-0.0 size=N/A time=00:01:28.63 bitrate=N/A speed=17.2x    frame= 2318 fps=409 q=-0.0 size=N/A time=00:01:36.67 bitrate=N/A speed=  17x    frame= 2501 fps=404 q=-0.0 size=N/A time=00:01:44.31 bitrate=N/A speed=16.8x    frame= 2680 fps=399 q=-0.0 size=N/A time=00:01:51.77 bitrate=N/A speed=16.7x    frame= 2883 fps=399 q=-0.0 size=N/A time=00:02:00.24 bitrate=N/A speed=16.7x    frame= 3086 fps=398 q=-0.0 size=N/A time=00:02:08.71 bitrate=N/A speed=16.6x    frame= 3295 fps=399 q=-0.0 size=N/A time=00:02:17.42 bitrate=N/A speed=16.6x    frame= 3516 fps=401 q=-0.0 size=N/A time=00:02:26.64 bitrate=N/A speed=16.7x    frame= 3756 fps=404 q=-0.0 size=N/A time=00:02:36.65 bitrate=N/A speed=16.9x    frame= 3999 fps=408 q=-0.0 size=N/A time=00:02:46.79 bitrate=N/A speed=  17x    frame= 4251 fps=412 q=-0.0 size=N/A time=00:02:57.30 bitrate=N/A speed=17.2x    frame= 4522 fps=417 q=-0.0 size=N/A time=00:03:08.60 bitrate=N/A speed=17.4x    frame= 4765 fps=420 q=-0.0 size=N/A time=00:03:18.74 bitrate=N/A speed=17.5x    frame= 5013 fps=422 q=-0.0 size=N/A time=00:03:29.08 bitrate=N/A speed=17.6x    frame= 5249 fps=424 q=-0.0 size=N/A time=00:03:38.92 bitrate=N/A speed=17.7x    frame= 5474 fps=425 q=-0.0 size=N/A time=00:03:48.31 bitrate=N/A speed=17.7x    frame= 5734 fps=428 q=-0.0 size=N/A time=00:03:59.15 bitrate=N/A speed=17.8x    frame= 5986 fps=430 q=-0.0 size=N/A time=00:04:09.66 bitrate=N/A speed=17.9x    frame= 6215 fps=430 q=-0.0 size=N/A time=00:04:19.21 bitrate=N/A speed=  18x    frame= 6449 fps=431 q=-0.0 size=N/A time=00:04:28.97 bitrate=N/A speed=  18x    frame= 6686 fps=432 q=-0.0 size=N/A time=00:04:38.86 bitrate=N/A speed=  18x    frame= 6920 fps=433 q=-0.0 size=N/A time=00:04:48.62 bitrate=N/A speed=  18x    frame= 7134 fps=432 q=-0.0 size=N/A time=00:04:57.54 bitrate=N/A speed=  18x    frame= 7393 fps=434 q=-0.0 size=N/A time=00:05:08.34 bitrate=N/A speed=18.1x    frame= 7632 fps=435 q=-0.0 size=N/A time=00:05:18.31 bitrate=N/A speed=18.2x    frame= 7895 fps=437 q=-0.0 size=N/A time=00:05:29.28 bitrate=N/A speed=18.2x    frame= 8161 fps=439 q=-0.0 size=N/A time=00:05:40.38 bitrate=N/A speed=18.3x    frame= 8430 fps=442 q=-0.0 size=N/A time=00:05:51.60 bitrate=N/A speed=18.4x    frame= 8713 fps=444 q=-0.0 size=N/A time=00:06:03.44 bitrate=N/A speed=18.5x    frame= 8983 fps=447 q=-0.0 size=N/A time=00:06:14.66 bitrate=N/A speed=18.6x    frame= 9235 fps=448 q=-0.0 size=N/A time=00:06:25.17 bitrate=N/A speed=18.7x    frame= 9446 fps=447 q=-0.0 size=N/A time=00:06:33.97 bitrate=N/A speed=18.6x    frame= 9657 fps=446 q=-0.0 size=N/A time=00:06:42.77 bitrate=N/A speed=18.6x    frame= 9886 fps=446 q=-0.0 size=N/A time=00:06:52.32 bitrate=N/A speed=18.6x    frame=10122 fps=446 q=-0.0 size=N/A time=00:07:02.17 bitrate=N/A speed=18.6x    frame=10364 fps=447 q=-0.0 size=N/A time=00:07:12.26 bitrate=N/A speed=18.6x    frame=10648 fps=449 q=-0.0 size=N/A time=00:07:24.11 bitrate=N/A speed=18.7x    frame=10894 fps=449 q=-0.0 size=N/A time=00:07:34.37 bitrate=N/A speed=18.7x    frame=11154 fps=451 q=-0.0 size=N/A time=00:07:45.21 bitrate=N/A speed=18.8x    frame=11439 fps=453 q=-0.0 size=N/A time=00:07:57.10 bitrate=N/A speed=18.9x    frame=11691 fps=454 q=-0.0 size=N/A time=00:08:07.61 bitrate=N/A speed=18.9x    frame=11949 fps=454 q=-0.0 size=N/A time=00:08:18.37 bitrate=N/A speed=18.9x    frame=12177 fps=454 q=-0.0 size=N/A time=00:08:27.88 bitrate=N/A speed=18.9x    frame=12459 fps=456 q=-0.0 size=N/A time=00:08:39.64 bitrate=N/A speed=  19x    frame=12700 fps=456 q=-0.0 size=N/A time=00:08:49.69 bitrate=N/A speed=  19x    frame=12949 fps=457 q=-0.0 size=N/A time=00:09:00.08 bitrate=N/A speed=  19x    frame=13190 fps=457 q=-0.0 size=N/A time=00:09:10.13 bitrate=N/A speed=  19x    frame=13389 fps=456 q=-0.0 size=N/A time=00:09:18.43 bitrate=N/A speed=  19x    frame=13618 fps=455 q=-0.0 size=N/A time=00:09:27.98 bitrate=N/A speed=  19x    frame=13777 fps=453 q=-0.0 size=N/A time=00:09:34.61 bitrate=N/A speed=18.9x    frame=14000 fps=452 q=-0.0 size=N/A time=00:09:43.91 bitrate=N/A speed=18.9x    frame=14248 fps=453 q=-0.0 size=N/A time=00:09:54.26 bitrate=N/A speed=18.9x    frame=14428 fps=451 q=-0.0 size=N/A time=00:10:01.76 bitrate=N/A speed=18.8x    frame=14662 fps=451 q=-0.0 size=N/A time=00:10:11.52 bitrate=N/A speed=18.8x    frame=14881 fps=451 q=-0.0 size=N/A time=00:10:20.66 bitrate=N/A speed=18.8x    frame=15094 fps=450 q=-0.0 size=N/A time=00:10:29.54 bitrate=N/A speed=18.8x    frame=15296 fps=449 q=-0.0 size=N/A time=00:10:37.97 bitrate=N/A speed=18.7x    frame=15524 fps=449 q=-0.0 size=N/A time=00:10:47.48 bitrate=N/A speed=18.7x    frame=15749 fps=449 q=-0.0 size=N/A time=00:10:56.86 bitrate=N/A speed=18.7x    frame=15972 fps=449 q=-0.0 size=N/A time=00:11:06.16 bitrate=N/A speed=18.7x    frame=16204 fps=449 q=-0.0 size=N/A time=00:11:15.84 bitrate=N/A speed=18.7x    frame=16426 fps=449 q=-0.0 size=N/A time=00:11:25.10 bitrate=N/A speed=18.7x    frame=16656 fps=449 q=-0.0 size=N/A time=00:11:34.69 bitrate=N/A speed=18.7x    frame=16872 fps=448 q=-0.0 size=N/A time=00:11:43.70 bitrate=N/A speed=18.7x    frame=17106 fps=448 q=-0.0 size=N/A time=00:11:53.46 bitrate=N/A speed=18.7x    frame=17340 fps=448 q=-0.0 size=N/A time=00:12:03.22 bitrate=N/A speed=18.7x    frame=17574 fps=448 q=-0.0 size=N/A time=00:12:12.98 bitrate=N/A speed=18.7x    frame=17754 fps=447 q=-0.0 size=N/A time=00:12:20.48 bitrate=N/A speed=18.6x    frame=17940 fps=446 q=-0.0 size=N/A time=00:12:28.24 bitrate=N/A speed=18.6x    frame=18155 fps=446 q=-0.0 size=N/A time=00:12:37.21 bitrate=N/A speed=18.6x    frame=18390 fps=446 q=-0.0 size=N/A time=00:12:47.01 bitrate=N/A speed=18.6x    frame=18618 fps=446 q=-0.0 size=N/A time=00:12:56.52 bitrate=N/A speed=18.6x    frame=18818 fps=445 q=-0.0 size=N/A time=00:13:04.86 bitrate=N/A speed=18.6x    frame=19048 fps=445 q=-0.0 size=N/A time=00:13:14.46 bitrate=N/A speed=18.6x    frame=19279 fps=445 q=-0.0 size=N/A time=00:13:24.09 bitrate=N/A speed=18.6x    frame=19471 fps=444 q=-0.0 size=N/A time=00:13:32.10 bitrate=N/A speed=18.5x    frame=19665 fps=443 q=-0.0 size=N/A time=00:13:40.19 bitrate=N/A speed=18.5x    frame=19861 fps=443 q=-0.0 size=N/A time=00:13:48.36 bitrate=N/A speed=18.5x    frame=20043 fps=442 q=-0.0 size=N/A time=00:13:55.96 bitrate=N/A speed=18.4x    frame=20268 fps=442 q=-0.0 size=N/A time=00:14:05.34 bitrate=N/A speed=18.4x    frame=20455 fps=441 q=-0.0 size=N/A time=00:14:13.14 bitrate=N/A speed=18.4x    frame=20676 fps=441 q=-0.0 size=N/A time=00:14:22.36 bitrate=N/A speed=18.4x    frame=20891 fps=440 q=-0.0 size=N/A time=00:14:31.32 bitrate=N/A speed=18.4x    frame=21134 fps=441 q=-0.0 size=N/A time=00:14:41.46 bitrate=N/A speed=18.4x    frame=21371 fps=441 q=-0.0 size=N/A time=00:14:51.34 bitrate=N/A speed=18.4x    frame=21554 fps=440 q=-0.0 size=N/A time=00:14:58.98 bitrate=N/A speed=18.4x    frame=21742 fps=439 q=-0.0 size=N/A time=00:15:06.82 bitrate=N/A speed=18.3x    frame=21935 fps=438 q=-0.0 size=N/A time=00:15:14.87 bitrate=N/A speed=18.3x    frame=22133 fps=438 q=-0.0 size=N/A time=00:15:23.13 bitrate=N/A speed=18.3x    frame=22319 fps=437 q=-0.0 size=N/A time=00:15:30.88 bitrate=N/A speed=18.2x    frame=22509 fps=437 q=-0.0 size=N/A time=00:15:38.81 bitrate=N/A speed=18.2x    frame=22712 fps=436 q=-0.0 size=N/A time=00:15:47.27 bitrate=N/A speed=18.2x    frame=22904 fps=435 q=-0.0 size=N/A time=00:15:55.28 bitrate=N/A speed=18.2x    frame=23082 fps=435 q=-0.0 size=N/A time=00:16:02.71 bitrate=N/A speed=18.1x    frame=23254 fps=434 q=-0.0 size=N/A time=00:16:09.88 bitrate=N/A speed=18.1x    frame=23441 fps=433 q=-0.0 size=N/A time=00:16:17.68 bitrate=N/A speed=18.1x    frame=23646 fps=433 q=-0.0 size=N/A time=00:16:26.23 bitrate=N/A speed=  18x    frame=23851 fps=432 q=-0.0 size=N/A time=00:16:34.78 bitrate=N/A speed=  18x    frame=24111 fps=433 q=-0.0 size=N/A time=00:16:45.62 bitrate=N/A speed=18.1x    frame=24339 fps=433 q=-0.0 size=N/A time=00:16:55.13 bitrate=N/A speed=18.1x    frame=24570 fps=433 q=-0.0 size=N/A time=00:17:04.77 bitrate=N/A speed=18.1x    frame=24779 fps=433 q=-0.0 size=N/A time=00:17:13.49 bitrate=N/A speed=18.1x    frame=24990 fps=433 q=-0.0 size=N/A time=00:17:22.29 bitrate=N/A speed=  18x    frame=25218 fps=433 q=-0.0 size=N/A time=00:17:31.80 bitrate=N/A speed=  18x    frame=25419 fps=432 q=-0.0 size=N/A time=00:17:40.18 bitrate=N/A speed=  18x    frame=25653 fps=433 q=-0.0 size=N/A time=00:17:49.94 bitrate=N/A speed=  18x    frame=25816 fps=432 q=-0.0 size=N/A time=00:17:56.74 bitrate=N/A speed=  18x    frame=25976 fps=431 q=-0.0 size=N/A time=00:18:03.41 bitrate=N/A speed=  18x    frame=26186 fps=430 q=-0.0 size=N/A time=00:18:12.17 bitrate=N/A speed=  18x    frame=26348 fps=429 q=-0.0 size=N/A time=00:18:18.93 bitrate=N/A speed=17.9x    frame=26508 fps=428 q=-0.0 size=N/A time=00:18:25.60 bitrate=N/A speed=17.9x    frame=26744 fps=429 q=-0.0 size=N/A time=00:18:35.44 bitrate=N/A speed=17.9x    frame=27007 fps=429 q=-0.0 size=N/A time=00:18:46.41 bitrate=N/A speed=17.9x    frame=27277 fps=430 q=-0.0 size=N/A time=00:18:57.67 bitrate=N/A speed=17.9x    frame=27544 fps=431 q=-0.0 size=N/A time=00:19:08.81 bitrate=N/A speed=  18x    frame=27822 fps=432 q=-0.0 size=N/A time=00:19:20.40 bitrate=N/A speed=  18x    frame=28087 fps=432 q=-0.0 size=N/A time=00:19:31.46 bitrate=N/A speed=  18x    frame=28353 fps=433 q=-0.0 size=N/A time=00:19:42.55 bitrate=N/A speed=18.1x    frame=28638 fps=434 q=-0.0 size=N/A time=00:19:54.44 bitrate=N/A speed=18.1x    frame=28916 fps=435 q=-0.0 size=N/A time=00:20:06.03 bitrate=N/A speed=18.1x    frame=29196 fps=435 q=-0.0 size=N/A time=00:20:17.71 bitrate=N/A speed=18.2x    frame=29480 fps=436 q=-0.0 size=N/A time=00:20:29.56 bitrate=N/A speed=18.2x    frame=29751 fps=437 q=-0.0 size=N/A time=00:20:40.86 bitrate=N/A speed=18.2x    frame=30027 fps=438 q=-0.0 size=N/A time=00:20:52.37 bitrate=N/A speed=18.3x    frame=30307 fps=439 q=-0.0 size=N/A time=00:21:04.05 bitrate=N/A speed=18.3x    frame=30584 fps=439 q=-0.0 size=N/A time=00:21:15.60 bitrate=N/A speed=18.3x    frame=30851 fps=440 q=-0.0 size=N/A time=00:21:26.74 bitrate=N/A speed=18.3x    frame=31144 fps=441 q=-0.0 size=N/A time=00:21:38.96 bitrate=N/A speed=18.4x    frame=31422 fps=441 q=-0.0 size=N/A time=00:21:50.55 bitrate=N/A speed=18.4x    frame=31695 fps=442 q=-0.0 size=N/A time=00:22:01.94 bitrate=N/A speed=18.4x    frame=31859 fps=441 q=-0.0 size=N/A time=00:22:08.78 bitrate=N/A speed=18.4x    frame=32012 fps=440 q=-0.0 size=N/A time=00:22:15.16 bitrate=N/A speed=18.4x    frame=32142 fps=439 q=-0.0 size=N/A time=00:22:20.58 bitrate=N/A speed=18.3x    frame=32294 fps=438 q=-0.0 size=N/A time=00:22:26.92 bitrate=N/A speed=18.3x    frame=32470 fps=437 q=-0.0 size=N/A time=00:22:34.26 bitrate=N/A speed=18.2x    frame=32643 fps=436 q=-0.0 size=N/A time=00:22:41.48 bitrate=N/A speed=18.2x    frame=32811 fps=436 q=-0.0 size=N/A time=00:22:48.49 bitrate=N/A speed=18.2x    frame=32955 fps=435 q=-0.0 size=N/A time=00:22:54.49 bitrate=N/A speed=18.1x    frame=33101 fps=434 q=-0.0 size=N/A time=00:23:00.58 bitrate=N/A speed=18.1x    frame=33238 fps=432 q=-0.0 size=N/A time=00:23:06.30 bitrate=N/A speed=  18x    frame=33381 fps=431 q=-0.0 size=N/A time=00:23:12.26 bitrate=N/A speed=  18x    frame=33537 fps=431 q=-0.0 size=N/A time=00:23:18.77 bitrate=N/A speed=  18x    frame=33687 fps=430 q=-0.0 size=N/A time=00:23:25.02 bitrate=N/A speed=17.9x    frame=33860 fps=429 q=-0.0 size=N/A time=00:23:32.24 bitrate=N/A speed=17.9x    frame=34095 fps=429 q=-0.0 size=N/A time=00:23:42.04 bitrate=N/A speed=17.9x    [Parsed_ssim_10 @ 000002157e75cb40] SSIM Y:0.993289 (21.732047) U:0.993380 (21.791149) V:0.993608 (21.943750) All:0.993357 (21.776495)
[out#0/null @ 000002157d7954c0] video:14697KiB audio:267500KiB subtitle:0KiB other streams:0KiB global headers:0KiB muxing overhead: unknown
frame=34203 fps=429 q=-0.0 Lsize=N/A time=00:23:46.55 bitrate=N/A speed=17.9x    
